<mxfile host="app.diagrams.net" modified="2024-04-11T22:46:10.758Z" agent="Mozilla/5.0 (Windows NT 10.0; Win64; x64) AppleWebKit/537.36 (KHTML, like Gecko) Chrome/123.0.0.0 Safari/537.36" version="24.2.3" etag="DD_9cIvd9Sn_SnP0uKCm" type="github">
  <diagram name="PÃ¡gina-1" id="R6zSB7dSYOAd_7WasBf3">
    <mxGraphModel>
      <root>
        <mxCell id="0" />
        <mxCell id="1" parent="0" />
      </root>
    </mxGraphModel>
  </diagram>
</mxfile>
